<svg xmlns="http://www.w3.org/2000/svg" width="16" height="17" viewBox="0 0 16 17">
    <g fill="none" fill-rule="evenodd">
        <g fill="#000" fill-rule="nonzero" stroke="#000" stroke-width=".5">
            <g>
                <path d="M138.033 19.663l-3.513-3.713c.904-1.092 1.399-2.464 1.399-3.894 0-3.34-2.674-6.056-5.96-6.056S124 8.717 124 12.056c0 3.34 2.673 6.056 5.96 6.056 1.233 0 2.408-.378 3.413-1.095l3.54 3.74c.148.157.347.243.56.243.202 0 .393-.078.539-.22.309-.302.319-.803.021-1.117zM129.96 7.58c2.43 0 4.405 2.008 4.405 4.476 0 2.469-1.976 4.477-4.405 4.477-2.429 0-4.404-2.008-4.404-4.477 0-2.468 1.975-4.476 4.404-4.476z" transform="translate(-502 -41) translate(379 36)"/>
            </g>
        </g>
    </g>
</svg>
